<svg width="33" height="25" viewBox="0 0 33 25" fill="none" xmlns="http://www.w3.org/2000/svg">
<path d="M23.3214 12.0948L21.8605 9.55899C21.5463 9.01323 20.7635 9.01323 20.4493 9.55899L12.9465 22.5524C12.3181 23.6384 10.747 23.6384 10.1185 22.5524L4.78225 13.3186C4.49008 12.8115 4.49008 12.1885 4.78225 11.6869L10.8186 1.22381C11.1329 0.67806 10.7415 0 10.113 0H7.91896C7.17475 0 6.48567 0.396913 6.11632 1.0419L0.438258 10.8655C-0.146086 11.8743 -0.146086 13.1202 0.438258 14.129L6.1108 23.9581C6.48567 24.6031 7.16924 25 7.91345 25H15.1295C15.8738 25 16.5628 24.6031 16.9322 23.9581L23.3104 12.9052C23.4537 12.6516 23.4537 12.3429 23.3104 12.0893L23.3214 12.0948Z" fill="#262262"/>
<path d="M9.72158 13.5447L10.8186 15.4465C11.1328 15.9923 11.9156 15.9923 12.2298 15.4465L19.7381 2.44763C20.3666 1.36163 21.9377 1.36163 22.5661 2.44763L27.8969 11.6814C28.189 12.1885 28.189 12.8115 27.8969 13.3131L21.8605 23.7707C21.5463 24.3164 21.9377 24.9945 22.5661 24.9945H24.7602C25.5044 24.9945 26.1935 24.5976 26.5628 23.9526L32.2354 14.1235C32.8197 13.1147 32.8197 11.8688 32.2354 10.86L26.5628 1.0419C26.1879 0.396913 25.5044 0 24.7602 0H17.5441C16.7943 0 16.1108 0.396913 15.7359 1.0419L9.72158 11.4609C9.34671 12.1058 9.34671 12.8997 9.72158 13.5447Z" fill="#22BBAD"/>
</svg>
