<?xml version="1.0" encoding="UTF-8"?>
<svg id="Layer_2" data-name="Layer 2" xmlns="http://www.w3.org/2000/svg" viewBox="0 0 23.08 91.5">
  <defs>
    <style>
      .cls-1 {
        fill: #2a2b30;
      }
    </style>
  </defs>
  <g id="Layer_1-2" data-name="Layer 1">
    <path class="cls-1" d="M17.19,69.91L12.14,.56c-.05-.75-1.16-.75-1.21,0L5.89,69.91C2.38,71.89,0,75.65,0,79.97c0,6.37,5.17,11.54,11.54,11.54,6.37,0,11.54-5.17,11.54-11.54,0-4.32-2.38-8.08-5.89-10.06Zm-5.65,16.54c-3.58,0-6.48-2.91-6.48-6.49,0-3.58,2.91-6.48,6.48-6.48,3.58,0,6.49,2.91,6.49,6.48,0,3.58-2.91,6.49-6.49,6.49Z"/>
  </g>
</svg>